<?xml version="1.0" encoding="UTF-8" standalone="no"?>
<!DOCTYPE svg PUBLIC "-//W3C//DTD SVG 1.1//EN" "http://www.w3.org/Graphics/SVG/1.1/DTD/svg11.dtd">
<svg width="100%" height="100%" viewBox="0 0 24 24" version="1.1" xmlns="http://www.w3.org/2000/svg" xmlns:xlink="http://www.w3.org/1999/xlink" xml:space="preserve" xmlns:serif="http://www.serif.com/" style="fill-rule:evenodd;clip-rule:evenodd;stroke-linejoin:round;stroke-miterlimit:2;">
    <g transform="matrix(0.0289913,0,0,0.0289913,-0.502549,0.156726)">
        <path d="M347,755C336,750 303,736 272,723C241,709 216,698 214,698C212,697 213,695 232,666C243,649 266,614 283,588C301,562 327,522 341,500C364,466 368,458 368,456C367,450 365,450 350,455C342,458 313,467 286,476C258,485 218,498 197,504C111,532 104,534 103,533C103,532 101,524 100,514C98,497 95,476 87,410C81,367 81,366 82,366C83,365 94,366 256,379C325,384 356,386 357,385C358,385 359,383 359,382C359,378 372,390 247,274C194,225 152,184 152,184C152,183 155,181 159,178C210,139 270,94 277,88C283,84 287,81 288,81C288,82 293,90 298,100C308,120 330,163 349,200C355,212 372,246 388,277C403,307 416,332 417,333C418,333 419,334 420,334C424,334 425,332 432,303C448,233 483,81 486,70C488,63 489,57 489,56C489,54 491,55 512,63C522,68 542,76 557,82C622,108 644,118 644,118C644,118 611,171 570,235C482,372 488,361 489,365C490,370 491,370 531,356C552,349 596,334 629,323C661,312 701,298 717,293C756,280 759,279 759,279C760,279 761,293 763,309C767,338 770,365 778,420C779,435 781,447 781,448C781,448 770,447 758,447C745,446 716,445 693,445C651,443 640,443 547,439C500,437 499,437 498,439C497,440 496,442 497,443C497,443 511,456 528,471C545,486 593,529 634,566L710,633L705,637C703,639 673,661 640,686C606,712 578,733 576,734C575,735 574,736 573,736C572,736 573,738 538,671C524,643 510,617 508,613C506,609 490,578 472,545C449,501 440,485 439,485C436,484 432,487 431,491C430,495 401,621 379,715C373,739 368,760 367,761C367,763 364,762 347,755Z" style="fill-rule:nonzero;fill:#000"/>
    </g>
</svg>
